<svg width="311" height="127" viewBox="0 0 311 127" fill="none" xmlns="http://www.w3.org/2000/svg">
<path d="M66.7 100H52.8V70.6H21.9V100H8.1V29.1H21.9V57.6H52.8V29.1H66.7V100ZM78.7094 86.6C78.7094 82.4 80.076 79.0333 82.8094 76.5C85.5427 73.9667 89.076 72.3667 93.4094 71.7L105.509 69.9C107.976 69.5667 109.209 68.4 109.209 66.4C109.209 64.5333 108.476 63 107.009 61.8C105.609 60.6 103.576 60 100.909 60C98.1094 60 95.876 60.7667 94.2094 62.3C92.6094 63.8333 91.7094 65.7333 91.5094 68L79.7094 65.5C80.176 61.2333 82.276 57.4667 86.0094 54.2C89.7427 50.9333 94.676 49.3 100.809 49.3C108.143 49.3 113.543 51.0667 117.009 54.6C120.476 58.0667 122.209 62.5333 122.209 68V92.2C122.209 95.1333 122.409 97.7333 122.809 100H110.609C110.276 98.5333 110.109 96.5667 110.109 94.1C106.976 98.9667 102.143 101.4 95.6094 101.4C90.5427 101.4 86.4427 99.9333 83.3094 97C80.2427 94.0667 78.7094 90.6 78.7094 86.6ZM98.4094 91.5C101.543 91.5 104.109 90.6333 106.109 88.9C108.176 87.1 109.209 84.1667 109.209 80.1V77.9L98.1094 79.6C94.0427 80.2 92.0094 82.2667 92.0094 85.8C92.0094 87.4 92.576 88.7667 93.7094 89.9C94.8427 90.9667 96.4094 91.5 98.4094 91.5ZM272.351 85.7C274.817 88.1667 277.784 89.4 281.251 89.4C284.717 89.4 287.651 88.1667 290.051 85.7C292.517 83.2333 293.751 79.8 293.751 75.4C293.751 71 292.517 67.5667 290.051 65.1C287.651 62.6333 284.717 61.4 281.251 61.4C277.784 61.4 274.817 62.6333 272.351 65.1C269.951 67.5667 268.751 71 268.751 75.4C268.751 79.8 269.951 83.2333 272.351 85.7ZM262.751 56.7C267.684 51.7667 273.851 49.3 281.251 49.3C288.651 49.3 294.784 51.7667 299.651 56.7C304.584 61.6333 307.051 67.8667 307.051 75.4C307.051 82.9333 304.584 89.1667 299.651 94.1C294.784 99.0333 288.651 101.5 281.251 101.5C273.851 101.5 267.684 99.0333 262.751 94.1C257.884 89.1667 255.451 82.9333 255.451 75.4C255.451 67.8667 257.884 61.6333 262.751 56.7Z" fill="#1F1F1F"/>
<path d="M147.216 75.3L129.716 100H144.716L162.916 75.3L145.516 50.8H129.716L147.216 75.3Z" fill="#1F1F1F"/>
<path d="M164.367 48.8L163.769 49.6418L146.369 74.1418L145.532 75.3215L146.389 76.4865L164.59 101.187L165.189 102H185.068L182.832 98.844L166.155 75.3049L182.828 51.9621L185.087 48.8H164.367Z" fill="#00A8A8" stroke="white" stroke-width="4"/>
<path d="M231.7 75.3L249.2 100H234.2L216 75.3L233.4 50.8H249.2L231.7 75.3Z" fill="#1F1F1F"/>
<path d="M214.549 48.8L215.146 49.6418L232.547 74.1418L233.384 75.3215L232.526 76.4865L214.326 101.187L213.726 102H193.847L196.084 98.844L212.76 75.3049L196.088 51.9621L193.829 48.8H214.549Z" fill="#00A8A8" stroke="white" stroke-width="4"/>
<circle cx="189" cy="75" r="7" fill="#1F1F1F"/>
</svg>
